<?xml version="1.0" encoding="UTF-8"?>
<svg viewBox="0 0 30 30" version="1.1" xmlns="http://www.w3.org/2000/svg" xmlns:xlink="http://www.w3.org/1999/xlink">
    <title>leftmenu/sports/color/icon-exchange</title>
    <g id="leftmenu/sports/color/icon-exchange" stroke="none" stroke-width="1" fill="none" fill-rule="evenodd">
        <path d="M3.35010067,6.35010067 C-0.904170772,10.6202758 -1.13521493,17.4521638 2.82084465,22 L19,5.82084465 C14.4521638,1.86478507 7.62027584,2.09582923 3.35010067,6.35010067 Z M4.47560713,17.9669352 L3.47739009,18.9718517 C3.3978863,19.0450676 3.27551726,19.0450676 3.19601347,18.9718517 L2.71365356,18.4827923 C2.64132813,18.4055163 2.64132813,18.2853912 2.71365356,18.2081151 L3.7118706,17.2098981 C3.74854026,17.171395 3.7993879,17.1496031 3.85255891,17.1496031 C3.90572992,17.1496031 3.95657755,17.171395 3.99324722,17.2098981 L4.47560713,17.692258 C4.54793256,17.769534 4.54793256,17.8896592 4.47560713,17.9669352 L4.47560713,17.9669352 Z M6.77351615,15.6690262 L5.77529911,16.6739427 C5.6980231,16.7462681 5.57789795,16.7462681 5.50062194,16.6739427 L5.01156258,16.1848833 C4.93923715,16.1076073 4.93923715,15.9874821 5.01156258,15.9102061 L6.02987795,14.9119891 C6.06536526,14.8738452 6.11511752,14.852178 6.16721654,14.852178 C6.21931556,14.852178 6.26906782,14.8738452 6.30455512,14.9119891 L6.78691503,15.394349 C6.82339063,15.4316658 6.84267364,15.4824898 6.84013118,15.5346103 C6.83758872,15.5867308 6.81345059,15.6354367 6.77351615,15.6690262 Z M9.07142517,13.3711171 L8.07320813,14.3894325 C8.03772082,14.4275764 7.98796856,14.4492436 7.93586954,14.4492436 C7.88377052,14.4492436 7.83401826,14.4275764 7.79853096,14.3894325 L7.3094716,13.9070726 C7.23714617,13.8297966 7.23714617,13.7096714 7.3094716,13.6323954 L8.31438808,12.6341784 C8.34987539,12.5960345 8.39962765,12.5743673 8.45172667,12.5743673 C8.50382569,12.5743673 8.55357795,12.5960345 8.58906526,12.6341784 L9.07142517,13.1165383 C9.13782144,13.1884104 9.13782144,13.2992451 9.07142517,13.3711171 Z M11.3894325,11.0732081 L10.3912155,12.0714252 C10.3557282,12.1095691 10.3059759,12.1312362 10.2538769,12.1312362 C10.2017779,12.1312362 10.1520256,12.1095691 10.1165383,12.0714252 L9.62747895,11.5890653 C9.55515352,11.5117892 9.55515352,11.3916641 9.62747895,11.3143881 L10.6323954,10.3094716 C10.7096714,10.2371462 10.8297966,10.2371462 10.9070726,10.3094716 L11.3894325,10.798531 C11.4275764,10.8340183 11.4492436,10.8837705 11.4492436,10.9358695 C11.4492436,10.9879686 11.4275764,11.0377208 11.3894325,11.0732081 Z M13.694041,8.77529911 L12.6891245,9.77351615 C12.6536372,9.81166007 12.6038849,9.83332723 12.5517859,9.83332723 C12.4996869,9.83332723 12.4499346,9.81166007 12.4144473,9.77351615 L11.9320874,9.29115624 C11.8939435,9.25566893 11.8722763,9.20591667 11.8722763,9.15381765 C11.8722763,9.10171863 11.8939435,9.05196637 11.9320874,9.01647906 L12.9303045,8.01156258 C13.0075805,7.93923715 13.1277056,7.93923715 13.2049816,8.01156258 L13.694041,8.49392249 C13.7618391,8.57857483 13.7530843,8.70114247 13.6739427,8.77529911 L13.694041,8.77529911 Z M14.9870335,7.47560713 C14.9097575,7.54793256 14.7896324,7.54793256 14.7123563,7.47560713 L14.2098981,7.02004499 C14.171395,6.98337533 14.1496031,6.93252769 14.1496031,6.87935668 C14.1496031,6.82618567 14.171395,6.77533804 14.2098981,6.73866837 L15.2081151,5.71365356 C15.2853912,5.64132813 15.4055163,5.64132813 15.4827923,5.71365356 L15.9718517,6.19601347 C16.0450676,6.27551726 16.0450676,6.3978863 15.9718517,6.47739009 L14.9870335,7.47560713 Z" id="Shape" fill="#C63C4F" fill-rule="nonzero"></path>
        <path d="M13.0662252,20.5301174 C13.3833888,19.8264919 14.0999941,19.3924974 14.8675497,19.4391892 L16.2384106,19.4391892 L16.2384106,13.8249005 C16.2465933,12.7510567 16.9673724,11.8147713 18,11.5366122 C17.6449602,11.3958958 17.3610309,11.1178922 17.2119205,10.7649801 C17.1173515,10.5216224 17.094365,10.2561011 17.1456954,10 L4,23.1909177 C7.30610009,26.0884635 11.9792677,26.811211 16,25.0468259 L13.5562914,22.5722816 C12.9915634,22.0568559 12.7973105,21.2473809 13.0662252,20.5301174 L13.0662252,20.5301174 Z M13.807947,15.7273727 L14.794702,14.7362246 C14.8732929,14.6635272 14.9942568,14.6635272 15.0728477,14.7362246 L15.5496689,15.2151687 C15.6220441,15.2941095 15.6220441,15.4156119 15.5496689,15.4945527 L14.5629139,16.4857008 C14.484323,16.5583983 14.3633591,16.5583983 14.2847682,16.4857008 L13.807947,16.0067568 C13.7670419,15.9678155 13.7438733,15.9136958 13.7438733,15.8570868 C13.7438733,15.8004777 13.7670419,15.746358 13.807947,15.7074167 L13.807947,15.7273727 Z M8.71523179,22.3195056 L7.7218543,23.3106537 C7.68677448,23.3485275 7.6375935,23.3700412 7.58609272,23.3700412 C7.53459193,23.3700412 7.48541095,23.3485275 7.45033113,23.3106537 L6.97350993,22.8317097 C6.935804,22.7964737 6.91438564,22.7470737 6.91438564,22.6953436 C6.91438564,22.6436136 6.935804,22.5942136 6.97350993,22.5589776 L7.9602649,21.5611775 C8.03665359,21.4893642 8.15539939,21.4893642 8.23178808,21.5611775 L8.71523179,22.0467736 C8.78672675,22.1235023 8.78672675,22.2427768 8.71523179,22.3195056 L8.71523179,22.3195056 Z M10.986755,20.0378693 L10.0397351,21.0290174 C10.0046553,21.0668912 9.9554743,21.088405 9.90397351,21.088405 C9.85247272,21.088405 9.80329174,21.0668912 9.76821192,21.0290174 L9.26490066,20.5301174 C9.22719473,20.4948814 9.20577637,20.4454814 9.20577637,20.3937513 C9.20577637,20.3420213 9.22719473,20.2926213 9.26490066,20.2573853 L10.2516556,19.2595852 C10.3280443,19.1877719 10.4467901,19.1877719 10.5231788,19.2595852 L11.0066225,19.7451813 C11.0471761,19.7829456 11.0702246,19.8359788 11.0702246,19.8915253 C11.0702246,19.9470718 11.0471761,20.0001049 11.0066225,20.0378693 L10.986755,20.0378693 Z M12.0264901,18.7473811 L11.5496689,18.2684371 C11.4772937,18.1894963 11.4772937,18.0679938 11.5496689,17.989053 L12.5364238,16.9979049 C12.6150147,16.9252075 12.7359787,16.9252075 12.8145695,16.9979049 L13.2913907,17.476849 C13.3637659,17.5557897 13.3637659,17.6772922 13.2913907,17.756233 L12.2913907,18.7473811 C12.2149013,18.8122564 12.1029795,18.8122564 12.0264901,18.7473811 L12.0264901,18.7473811 Z" id="Shape" fill="#C63C4F" fill-rule="nonzero"></path>
        <ellipse id="Oval" fill="#F5463C" transform="translate(6.5, 8) rotate(-315) translate(-6.5, -8)" cx="6.5" cy="8" rx="1.5" ry="3"></ellipse>
        <path d="M16.2260942,26.9999749 C16.6327593,26.9999749 16.7995985,26.8290795 16.7997731,26.4117597 L16.7998604,22.7267739 C16.7999478,21.4789179 16.7994239,20.231062 16.8003843,18.9832061 C16.8006462,18.7100275 16.9276745,18.5816886 17.1961363,18.5761011 C17.2680753,18.5746169 17.3400144,18.5757518 17.4119534,18.5757518 C18.1121368,18.5755772 18.8124075,18.5775852 19.5126782,18.5744423 C19.8353562,18.5729581 20.0489907,18.3151452 19.9903219,18.0060842 C19.9625591,17.8598476 19.866262,17.7568273 19.7669966,17.6559896 C17.9896484,15.8502522 16.2126493,14.0441656 14.4353883,12.2382536 C14.4015141,12.2038553 14.3676399,12.1691078 14.330972,12.1377651 C14.2233253,12.0455706 14.1116627,11.9997353 14,11.9999961 L14,26.9999749 C14.7420023,26.9999749 15.4840919,26.9999749 16.2260942,26.9999749" id="Fill-1" fill="#FF8E32" transform="translate(17, 19.5) rotate(-180) translate(-17, -19.5)"></path>
        <path d="M25.66702,12.1409332 C25.6232804,12.1787364 25.5830329,12.2209049 25.5424363,12.2622877 L23.7710247,14.0622629 L21.9997005,15.8623254 L20.2618139,17.6284261 L20.1610643,17.7327561 C20.0092415,17.8962791 19.9527554,18.0851206 20.0439015,18.2962251 C20.1334761,18.5033134 20.3064266,18.5776103 20.5224183,18.57665 L21.2611031,18.5751658 L22.1771035,18.5757769 C22.3736263,18.5757769 22.5703237,18.5745546 22.7669338,18.5762134 C23.0630712,18.5787453 23.1777023,18.6936392 23.1818056,18.988906 L23.1822421,19.0694016 L23.1822421,26.2566431 C23.1822421,26.3297177 23.1811071,26.4031416 23.1873931,26.4757796 C23.2204815,26.8590503 23.3725663,27 23.7513812,27 C24.500979,27 25.2504895,27 26,27 L26,12.0000223 C25.8878135,12.0002842 25.7755397,12.0472545 25.66702,12.1409332" id="Fill-4" fill="#FF7734" transform="translate(23, 19.5) rotate(-180) translate(-23, -19.5)"></path>
        <path d="M26.2260773,19.0000039 C26.6327424,19.0000039 26.7995816,18.8291084 26.7997562,18.4117887 L26.7998435,14.7268028 C26.7999308,13.4789469 26.799407,12.231091 26.8003674,10.983235 C26.8006293,10.7100565 26.9276575,10.5817176 27.1961194,10.57613 C27.2680584,10.5746458 27.3399975,10.5757808 27.4119365,10.5757808 C28.1121199,10.5756062 28.8123905,10.5776142 29.5126612,10.5744712 C29.8353393,10.572987 30.0489738,10.3151742 29.990305,10.0061131 C29.9625421,9.8598766 29.8662451,9.75685624 29.7669797,9.65601851 C27.9896314,7.85028115 26.2126324,6.04419457 24.4353714,4.2382826 C24.4014972,4.20388427 24.367623,4.16913673 24.330955,4.1377941 C24.2233084,4.0455996 24.1116457,3.99976428 23.9999831,4.00002508 L23.9999831,19.0000039 C24.7419854,19.0000039 25.484075,19.0000039 26.2260773,19.0000039" id="Fill-1" fill="#FEC24D"></path>
        <path d="M23.6670031,4.1409109 C23.6232635,4.17871413 23.583016,4.22088263 23.5424194,4.26226539 L21.7710078,6.06224059 L19.9996836,7.8623031 L18.261797,9.62840382 L18.1610474,9.73273376 C18.0092246,9.89625675 17.9527385,10.0850983 18.0438846,10.2962027 C18.1334591,10.5032911 18.3064097,10.577588 18.5224014,10.5766276 L19.2610861,10.5751435 L20.1770866,10.5757546 C20.3736094,10.5757546 20.5703068,10.5745323 20.7669169,10.5761911 C21.0630543,10.578723 21.1776853,10.6936169 21.1817887,10.9888837 L21.1822252,11.0693793 L21.1822252,18.2566208 C21.1822252,18.3296954 21.1810902,18.4031192 21.1873761,18.4757573 C21.2204646,18.859028 21.3725493,18.9999777 21.7513643,18.9999777 C22.5009621,18.9999777 23.2504726,18.9999777 23.9999831,18.9999777 L23.9999831,4 C23.8877966,4.00026192 23.7755228,4.04723222 23.6670031,4.1409109" id="Fill-4" fill="#FFEA80"></path>
    </g>
</svg>
