<?xml version="1.0" encoding="UTF-8"?>
<svg viewBox="0 0 25 25" version="1.1" xmlns="http://www.w3.org/2000/svg" xmlns:xlink="http://www.w3.org/1999/xlink">
    <title>Group</title>
    <defs>
        <linearGradient x1="50%" y1="1.23259516e-30%" x2="50%" y2="100%" id="linearGradient-1">
            <stop stop-color="#F5DB21" offset="0%"></stop>
            <stop stop-color="#F5DB21" offset="100%"></stop>
        </linearGradient>
    </defs>
    <g id="Symbols" stroke="none" stroke-width="1" fill="none" fill-rule="evenodd">
        <g id="btn/bg/複選" transform="translate(-55.000000, -15.000000)">
            <g id="Group" transform="translate(55.000000, 15.000000)">
                <path d="M18,7 C21.7854517,7 24.8690987,3.99521662 24.995941,0.240649751 L25,6.4293957e-16 L25,25 L1.50990331e-14,25 C3.78545172,25 6.86909868,21.9952166 6.99594098,18.2406498 L7,18 L7,16 C7,11.0294373 11.0294373,7 16,7 L18,7 Z" id="Combined-Shape" fill="url(#linearGradient-1)"></path>
                <path d="M18.4156349,12.2582235 C18.7599329,12.6025215 18.7599329,13.1607388 18.4156349,13.5050368 L14.675195,17.2454767 C14.4479894,17.4726823 14.1276259,17.5499527 13.8370561,17.4772878 C13.5469616,17.5501283 13.2261275,17.4729408 12.9986634,17.2454767 L11.4170495,15.6638628 C11.0727516,15.3195649 11.0727516,14.7613475 11.4170495,14.4170495 C11.7613475,14.0727516 12.3195649,14.0727516 12.6638628,14.4170495 L13.8368261,15.59 L17.1688216,12.2582235 C17.5131196,11.9139255 18.0713369,11.9139255 18.4156349,12.2582235 Z" id="Combined-Shape" fill="#222222" transform="translate(14.916342, 14.751904) rotate(-360.000000) translate(-14.916342, -14.751904) "></path>
            </g>
        </g>
    </g>
</svg>
