<?xml version="1.0" encoding="UTF-8"?>
<svg viewBox="0 0 24 24" version="1.1" xmlns="http://www.w3.org/2000/svg" xmlns:xlink="http://www.w3.org/1999/xlink">
    <title>erc20</title>
    <g id="crypto" stroke="none" stroke-width="1" fill="none" fill-rule="evenodd">
        <g id="erc20">
            <rect id="Rectangle" fill="#CFCFCF" x="0" y="0" width="24" height="24" rx="12"></rect>
            <g id="Group-5" transform="translate(7.000000, 3.000000)" fill="#4D4949" fill-rule="nonzero">
                <path d="M4.97234127,0 C5.1302501,0 5.27708513,0.0804353217 5.36102582,0.212938421 L5.36102582,0.212938421 L9.92973653,7.42435597 C10.0630505,7.63474859 10.0011351,7.91224136 9.79079388,8.04741149 L9.79079388,8.04741149 L5.31024538,10.9267778 C5.23438061,10.9755724 5.14750322,11 5.06056465,11 C4.97546151,11 4.89041956,10.9766028 4.81553369,10.9297479 L4.81553369,10.9297479 L0.213907471,8.0503816 C0.00093549917,7.91709051 -0.0637942755,7.6385673 0.0688466995,7.42641686 L0.0688466995,7.42641686 L4.58231073,0.214999311 C4.66582315,0.0817082243 4.81271936,0.000424300868 4.97234127,0 Z M4.97395136,1.2 L1.02040816,7.48600358 L5.05779251,10 L8.97959184,7.49201749 L4.97395136,1.2 Z" id="Shape"></path>
                <path d="M0.0857046218,9.86673885 L4.82063253,17.771362 C4.90669328,17.9150731 5.04530601,18 5.19270792,18 C5.19569869,18 5.19875049,18 5.20174125,18 C5.35250014,17.9963488 5.49215049,17.9041926 5.57503736,17.7534712 L9.92458404,9.84884798 C10.0428107,9.63401153 10.0201054,9.34965628 9.87001786,9.16548989 C9.72005243,8.98139652 9.48298865,8.94671014 9.30043001,9.08268073 L5.02607967,12.2633118 L0.697407307,9.0810742 C0.511674792,8.94451942 0.271376101,8.98366026 0.122814503,9.17439881 C-0.0257470948,9.36521038 -0.0412502361,9.65482335 0.0857046218,9.86673885 Z M4.8145919,13.4571657 C4.95871803,13.5647665 5.14045263,13.5641877 5.28398369,13.4556461 L7.95918367,11.4324324 L5.19365196,16.5405405 L2.24489796,11.5371388 L4.8145919,13.4571657 Z" id="Shape"></path>
                <path d="M4.61498829,5.85676652 C5.00373403,5.77913842 5.00785559,5.78119931 5.39782495,5.85676652 L5.39782495,5.85676652 L9.92973653,7.42435597 C10.0630505,7.63474859 10.0011351,7.91224136 9.79079388,8.04741149 L9.79079388,8.04741149 L5.31024538,10.9267778 C5.23438061,10.9755724 5.14750322,11 5.06056465,11 C4.97546151,11 4.89041956,10.9766028 4.81553369,10.9297479 L4.81553369,10.9297479 L0.213907471,8.0503816 C0.00093549917,7.91709051 -0.0637942755,7.6385673 0.0688466995,7.42641686 L0.0688466995,7.42641686 Z M5,6.79109431 L1.62055558,7.98199235 L5.05779251,10 L8.5958957,7.98199235 L5,6.79109431 Z" id="Shape"></path>
            </g>
        </g>
    </g>
</svg>