<?xml version="1.0" encoding="UTF-8"?>
<svg viewBox="0 0 30 30" version="1.1" xmlns="http://www.w3.org/2000/svg" xmlns:xlink="http://www.w3.org/1999/xlink">
    <title>leftmenu/games/icon-lottery</title>
    <g id="leftmenu/games/icon-lottery" stroke="none" stroke-width="1" fill="none" fill-rule="evenodd">
        <path d="M15.5,3 C22.4032609,3 28,8.59782609 28,15.5 C28,22.4043478 22.4032609,28 15.5,28 C8.59673913,28 3,22.4043478 3,15.5 C3,8.59782609 8.59673913,3 15.5,3 Z M15.5,8.10217391 C11.4141304,8.10217391 8.10108696,11.4141304 8.10108696,15.5 C8.10108696,19.5869565 11.4141304,22.898913 15.5,22.898913 C19.5858696,22.898913 22.898913,19.5869565 22.898913,15.5 C22.898913,11.4141304 19.5858696,8.10217391 15.5,8.10217391 Z M15.4656522,10.3628261 C16.0732609,10.3628261 16.6286957,10.4628261 17.1286957,10.663913 C17.6297826,10.865 18.0319565,11.1606522 18.3363043,11.5486957 C18.6406522,11.9367391 18.7928261,12.4073913 18.7928261,12.9595652 C18.7928261,13.4084783 18.696087,13.7997826 18.5047826,14.1313043 C18.3123913,14.463913 18.0558696,14.74 17.7330435,14.9595652 C17.595,15.0541304 17.4482609,15.1356522 17.2971739,15.2084783 C17.5113043,15.2954348 17.7178261,15.3997826 17.9156522,15.5215217 C18.2852174,15.7508696 18.5819565,16.0508696 18.8069565,16.4204348 C19.0308696,16.79 19.143913,17.2323913 19.143913,17.7465217 C19.143913,18.1954348 19.0428261,18.5986957 18.8417391,18.9541304 C18.6406522,19.3095652 18.368913,19.613913 18.0276087,19.866087 C17.6852174,20.1193478 17.295,20.3106522 16.8547826,20.4421739 C16.4156522,20.5726087 15.9515217,20.638913 15.4656522,20.638913 C14.9884783,20.638913 14.5297826,20.5726087 14.0895652,20.4421739 C13.6493478,20.3106522 13.2569565,20.1193478 12.9102174,19.866087 C12.5634783,19.613913 12.2928261,19.3095652 12.096087,18.9541304 C11.8993478,18.5986957 11.8015217,18.1954348 11.8015217,17.7465217 C11.8015217,17.2323913 11.9134783,16.79 12.1384783,16.4204348 C12.3623913,16.0508696 12.6580435,15.7508696 13.0221739,15.5215217 C13.2178261,15.3997826 13.4221739,15.2954348 13.6352174,15.2073913 C13.4852174,15.1356522 13.3417391,15.0541304 13.2047826,14.9595652 C12.8873913,14.74 12.6319565,14.463913 12.4395652,14.1313043 C12.2482609,13.7997826 12.1526087,13.4084783 12.1526087,12.9595652 C12.1526087,12.4073913 12.3015217,11.9367391 12.6015217,11.5486957 C12.9015217,11.1606522 13.3036957,10.865 13.8091304,10.663913 C14.3145652,10.4628261 14.8667391,10.3628261 15.4656522,10.3628261 Z M15.4656522,16.1041304 C15.2319565,16.1041304 15.0134783,16.1606522 14.8123913,16.2726087 C14.6113043,16.3845652 14.4526087,16.538913 14.3352174,16.7356522 C14.2178261,16.9323913 14.1602174,17.1476087 14.1602174,17.3813043 C14.1602174,17.6715217 14.2178261,17.915 14.3352174,18.1117391 C14.4526087,18.3084783 14.6113043,18.4584783 14.8123913,18.5606522 C15.0134783,18.663913 15.2319565,18.715 15.4656522,18.715 C15.7091304,18.715 15.9286957,18.663913 16.1254348,18.5606522 C16.3221739,18.4584783 16.4808696,18.3084783 16.6026087,18.1117391 C16.7243478,17.915 16.7852174,17.6715217 16.7852174,17.3813043 C16.7852174,17.1476087 16.7243478,16.9323913 16.6026087,16.7356522 C16.4808696,16.538913 16.3221739,16.3845652 16.1254348,16.2726087 C15.9286957,16.1606522 15.7091304,16.1041304 15.4656522,16.1041304 Z M15.4656522,12.0606522 C15.2591304,12.0606522 15.0721739,12.1073913 14.9036957,12.2008696 C14.7352174,12.2954348 14.6047826,12.4280435 14.5113043,12.6019565 C14.4167391,12.7747826 14.37,12.9693478 14.37,13.1845652 C14.37,13.4084783 14.42,13.6052174 14.5178261,13.7736957 C14.6156522,13.9421739 14.7471739,14.0736957 14.9113043,14.1671739 C15.0743478,14.2606522 15.2591304,14.3073913 15.4656522,14.3073913 C15.6808696,14.3073913 15.87,14.2606522 16.0341304,14.1671739 C16.1971739,14.0736957 16.3265217,13.9421739 16.42,13.7736957 C16.5134783,13.6052174 16.5602174,13.4084783 16.5602174,13.1845652 C16.5602174,12.9693478 16.5134783,12.7747826 16.42,12.6019565 C16.3265217,12.4280435 16.2004348,12.2954348 16.0406522,12.2008696 C15.8819565,12.1073913 15.6895652,12.0606522 15.4656522,12.0606522 Z" id="Combined-Shape" fill="#222222" fill-rule="nonzero"></path>
    </g>
</svg>