<?xml version="1.0" encoding="UTF-8"?>
<svg viewBox="0 0 30 30" version="1.1" xmlns="http://www.w3.org/2000/svg" xmlns:xlink="http://www.w3.org/1999/xlink">
    <title>leftmenu/games/icon-casino</title>
    <g id="leftmenu/games/icon-casino" stroke="none" stroke-width="1" fill="none" fill-rule="evenodd">
        <path d="M21.5801832,17.9952919 C20.6207594,20.9221594 16.6395888,20.990539 15.6615461,18.8449915 L15.5005469,18.5176666 L15.3384525,18.8449915 C14.3604098,20.990539 10.3792392,20.9221594 9.41981539,17.9952919 C7.8021568,13.0585149 14.3910763,11.4745763 15.5005469,9.25056049 C16.6100176,11.4745763 23.1978418,13.0585149 21.5801832,17.9952919 M15.5005469,3 C13.4853189,7.23953009 1.52428339,10.2583176 4.46169729,19.6677876 C6.2042124,25.2457627 13.4316525,25.3746749 15.2070246,21.2864765 C14.4524093,24.3310465 12.1885635,26.7579589 9.25553049,27.6368039 L9.57862412,28 L21.4213745,28 L21.7444681,27.6368039 C18.8125304,26.7579589 16.5475893,24.3310465 15.792974,21.2864765 C17.5694413,25.3746749 24.7968814,25.2457627 26.5383013,19.6677876 C29.4757152,10.2583176 17.5146797,7.23953009 15.5005469,3" id="casino" fill="#222222" fill-rule="nonzero"></path>
    </g>
</svg>