<?xml version="1.0" encoding="UTF-8"?>
<svg viewBox="0 0 30 30" version="1.1" xmlns="http://www.w3.org/2000/svg" xmlns:xlink="http://www.w3.org/1999/xlink">
    <title>mb/setting/color/icon-Ambassador</title>
    <defs>
        <linearGradient x1="50%" y1="1.33055874e-13%" x2="50%" y2="104.53891%" id="linearGradient-1">
            <stop stop-color="#F5DB21" stop-opacity="0.7" offset="0%"></stop>
            <stop stop-color="#F5DB21" stop-opacity="0.995478029" offset="100%"></stop>
            <stop stop-color="#FFFFFF" offset="100%"></stop>
            <stop stop-color="#15245C" stop-opacity="0.995478029" offset="100%"></stop>
        </linearGradient>
    </defs>
    <g id="mb/setting/color/icon-Ambassador" stroke="none" stroke-width="1" fill="none" fill-rule="evenodd">
        <path d="M21.6834615,12.8231209 C22.0195062,12.5304393 22.5176204,12.5517727 22.8288462,12.8721758 C23.1595842,13.2139013 23.1595842,13.7663185 22.8288462,14.108044 L17.6923077,19.4241758 L17.6923077,20.2960593 L12.3076923,20.2960593 L12.3076923,19.4241758 L7.17115385,14.108044 C6.84041583,13.7663185 6.84041583,13.2139013 7.17115385,12.8721758 C7.4823796,12.5517727 7.98049379,12.5304393 8.31653846,12.8231209 L10.95,15.1243516 C12.0807575,16.1125112 13.5162286,16.6550106 15,16.6549451 C16.4837714,16.6550106 17.9192425,16.1125112 19.05,15.1243516 Z M15,11.2 C16.2745033,11.2 17.3076923,12.2627087 17.3076923,13.5736264 C17.3076923,14.884544 16.2745033,15.9472527 15,15.9472527 C13.7254967,15.9472527 12.6923077,14.884544 12.6923077,13.5736264 C12.6923077,12.2627087 13.7254967,11.2 15,11.2 Z M17.9114207,3.97233344 L16.3314565,3.74772641 L15.6275835,2.35544415 C15.3886154,1.88151862 14.6113364,1.88151862 14.3724152,2.35544415 L13.668589,3.7477733 L12.0886248,3.97238033 C11.509017,4.05434548 11.2775021,4.77266597 11.7027509,5.17855292 L12.8363727,6.25690113 L12.5692797,7.77625752 C12.4692956,8.3479973 13.0693876,8.78764564 13.5834643,8.52360342 L14.9999759,7.79552964 L16.4165344,8.52360342 C16.9377829,8.79256917 17.529625,8.34204216 17.430719,7.77625752 L17.163626,6.25690113 L18.2972947,5.17850603 C18.7224966,4.77261908 18.4909816,4.05434548 17.9114207,3.97233344 Z M9.96873582,6.79207642 L8.62051145,6.58799685 L8.01987841,5.32295912 C7.81596078,4.89234696 7.15268847,4.89234696 6.94881083,5.32295912 L6.34821779,6.58803945 L4.99999343,6.79211903 C4.50539916,6.86659316 4.30784145,7.51926435 4.67071724,7.88805617 L5.63806603,8.86785115 L5.41014867,10.2483493 C5.32482966,10.7678362 5.83690372,11.1673039 6.27557864,10.9273932 L7.48432462,10.2658601 L8.69311061,10.9273932 C9.13790545,11.1717775 9.64293959,10.7624254 9.55854057,10.2483493 L9.33062321,8.86785115 L10.298012,7.88801356 C10.6608478,7.51922175 10.4632901,6.86659316 9.96873582,6.79207642 Z M24.9687358,6.79207642 L23.6205114,6.58799685 L23.0198784,5.32295912 C22.8159608,4.89234696 22.1526885,4.89234696 21.9488108,5.32295912 L21.3482178,6.58803945 L19.9999934,6.79211903 C19.5053992,6.86659316 19.3078415,7.51926435 19.6707172,7.88805617 L20.638066,8.86785115 L20.4101487,10.2483493 C20.3248297,10.7678362 20.8369037,11.1673039 21.2755786,10.9273932 L22.4843246,10.2658601 L23.6931106,10.9273932 C24.1379054,11.1717775 24.6429396,10.7624254 24.5585406,10.2483493 L24.3306232,8.86785115 L25.298012,7.88801356 C25.6608478,7.51922175 25.4632901,6.86659316 24.9687358,6.79207642 Z M24.0769231,21.5384615 C24.5867244,21.5384615 25,21.9517372 25,22.4615385 C25,22.9713398 24.5867244,23.3846154 24.0769231,23.3846154 L22.3543509,23.384 L21.4600752,27.2832919 C21.3638759,27.7026951 20.990657,28 20.5603625,28 L9.32724727,28 C8.89048822,28 8.513506,27.6938952 8.42383476,27.2664405 L7.60935092,23.384 L5.92307692,23.3846154 C5.41327562,23.3846154 5,22.9713398 5,22.4615385 C5,21.9517372 5.41327562,21.5384615 5.92307692,21.5384615 L24.0769231,21.5384615 Z" id="Combined-Shape" fill="url(#linearGradient-1)"></path>
    </g>
</svg>