<?xml version="1.0" encoding="UTF-8"?>
<svg viewBox="0 0 30 30" version="1.1" xmlns="http://www.w3.org/2000/svg" xmlns:xlink="http://www.w3.org/1999/xlink">
    <title>leftmenu/contactus/solid/icon-line</title>
    <defs>
        <linearGradient x1="50%" y1="1.33055874e-13%" x2="50%" y2="104.53891%" id="linearGradient-1">
            <stop stop-color="#F5DB21" stop-opacity="0.7" offset="0%"></stop>
            <stop stop-color="#F5DB21" stop-opacity="0.995478029" offset="100%"></stop>
            <stop stop-color="#FFFFFF" offset="100%"></stop>
            <stop stop-color="#F5DB21" stop-opacity="0.995478029" offset="100%"></stop>
        </linearGradient>
        <path d="M24.0803096,11.6258221 C24.0803096,11.7615021 23.9715607,11.8712458 23.8370692,11.8712458 L21.4549243,11.8712458 L21.4549243,12.798598 L23.8370692,12.798598 C23.9715607,12.798598 24.0803096,12.9085182 24.0803096,13.0441981 L24.0803096,13.9274411 C24.0803096,14.0629446 23.9715607,14.1728648 23.8370692,14.1728648 L21.4549243,14.1728648 L21.4549243,15.1003934 L23.8370692,15.1003934 C23.9715607,15.1003934 24.0803096,15.2103136 24.0803096,15.3456407 L24.0803096,16.2292365 C24.0803096,16.3645636 23.9715607,16.4744838 23.8370692,16.4744838 L20.3345125,16.4744838 L20.3339871,16.4744838 C20.2686677,16.4744838 20.2094774,16.4483711 20.1660479,16.4058498 C20.1648221,16.4047912 20.1634211,16.4037326 20.1625455,16.402674 C20.1613197,16.4014389 20.1600939,16.4002039 20.1590431,16.3989688 C20.1171897,16.355036 20.0910969,16.2954004 20.0910969,16.2295894 L20.0910969,16.2292365 L20.0910969,10.7425792 L20.0910969,10.7422263 C20.0910969,10.6765918 20.1168395,10.6171326 20.1585178,10.5731998 C20.1595685,10.5717883 20.1609695,10.5703768 20.1625455,10.5687889 C20.1634211,10.5680831 20.1644718,10.5672009 20.1653474,10.5663187 C20.2093023,10.523621 20.2683175,10.4971555 20.3339871,10.4971555 L20.3345125,10.4971555 L23.8370692,10.4971555 C23.9715607,10.4971555 24.0803096,10.6070757 24.0803096,10.7425792 L24.0803096,11.6258221 Z M19.2386173,16.2295894 C19.2386173,16.36474 19.1296932,16.4743073 18.9952017,16.4743073 L18.1183805,16.4743073 C18.0968409,16.4743073 18.0760017,16.4713079 18.0562132,16.4660148 C18.0549874,16.4658384 18.0537616,16.4653091 18.0527108,16.4651326 C18.047107,16.4635447 18.0418535,16.4617803 18.0358994,16.4598395 C18.0336229,16.4591338 18.0311712,16.4580751 18.0287195,16.4570165 C18.0246918,16.4554286 18.0208392,16.4536642 18.0168114,16.4520763 C18.0131339,16.4503119 18.0089311,16.4483711 18.0052536,16.4462539 C18.0028019,16.4450188 18.0007005,16.4439602 17.9984239,16.4425487 C17.9931704,16.4397257 17.988267,16.4365498 17.9833637,16.433374 C17.9826632,16.4326682 17.9816125,16.4319625 17.9807369,16.4314332 C17.9574461,16.4153774 17.9360815,16.3954401 17.9189199,16.3709153 L15.4199706,12.9704475 L15.4199706,16.2295894 C15.4199706,16.36474 15.3108714,16.4743073 15.1762048,16.4743073 L14.2995587,16.4743073 C14.1652424,16.4743073 14.0561432,16.36474 14.0561432,16.2295894 L14.0561432,10.7420499 C14.0561432,10.6068992 14.1652424,10.4971555 14.2995587,10.4971555 L15.1762048,10.4971555 C15.179357,10.4971555 15.1818086,10.4975084 15.1847857,10.4975084 C15.1891636,10.4976848 15.1933665,10.4978612 15.1973942,10.4982141 C15.2017722,10.4987434 15.2059751,10.4990963 15.2101779,10.4999785 C15.2135052,10.5003314 15.2171827,10.5006842 15.2203348,10.5012135 C15.2252382,10.5022722 15.2297913,10.5033308 15.2343444,10.5045658 C15.2374965,10.5052716 15.2402984,10.5058009 15.2429252,10.5066831 C15.2478285,10.5080946 15.2525567,10.5096825 15.257285,10.5114469 C15.2600869,10.5121526 15.2623634,10.5132112 15.2651653,10.5142699 C15.2702438,10.5160342 15.2747969,10.5181515 15.2791748,10.5200923 C15.2819767,10.5213273 15.2842533,10.5227388 15.2870552,10.5239739 C15.2912581,10.5260911 15.295636,10.5287377 15.300014,10.5312078 C15.3024657,10.5326193 15.3049173,10.5340308 15.3071939,10.5356187 C15.311747,10.5384417 15.3157747,10.5414411 15.3199776,10.5444406 C15.3219039,10.5460285 15.3243556,10.5476164 15.3262819,10.5493808 C15.330835,10.5527331 15.3352129,10.5564383 15.3392407,10.5603199 C15.3408168,10.5617314 15.3422177,10.5631429 15.3437938,10.5645544 C15.3486971,10.5693182 15.3537756,10.5742584 15.3583287,10.5795515 C15.358854,10.5800808 15.3593794,10.5806101 15.3599047,10.5811394 C15.3667344,10.5890791 15.3732138,10.5971952 15.3789927,10.606017 L17.874965,14.0022503 L17.874965,10.7420499 C17.874965,10.6068992 17.983889,10.4971555 18.1183805,10.4971555 L18.9952017,10.4971555 C19.1296932,10.4971555 19.2386173,10.6068992 19.2386173,10.7420499 L19.2386173,16.2295894 Z M13.2038386,16.2295894 C13.2038386,16.36474 13.0947394,16.4743073 12.960248,16.4743073 L12.0832516,16.4743073 C11.9489353,16.4743073 11.8398361,16.36474 11.8398361,16.2295894 L11.8398361,10.7420499 C11.8398361,10.6068992 11.9489353,10.4971555 12.0832516,10.4971555 L12.960248,10.4971555 C13.0947394,10.4971555 13.2038386,10.6068992 13.2038386,10.7420499 L13.2038386,16.2295894 Z M11.0896259,16.2290601 C11.0896259,16.3643872 10.980877,16.4744838 10.8465607,16.4744838 L7.34417904,16.4744838 L7.34365368,16.4744838 C7.27833427,16.4744838 7.21931914,16.4483711 7.17553937,16.4060263 C7.17431353,16.4047912 7.1730877,16.403909 7.17203699,16.402674 C7.17046091,16.4014389 7.16976044,16.4002039 7.16870972,16.3989688 C7.12650602,16.355036 7.1005884,16.2954004 7.1005884,16.2295894 L7.1005884,16.2290601 L7.1005884,10.7422263 C7.1005884,10.6067228 7.20968759,10.4969791 7.34417904,10.4969791 L8.22100028,10.4969791 C8.3551415,10.4969791 8.46424068,10.6067228 8.46424068,10.7422263 L8.46424068,15.100217 L10.8465607,15.100217 C10.980877,15.100217 11.0896259,15.2103136 11.0896259,15.3456407 L11.0896259,16.2290601 Z M28,13.2202821 C28,7.58488851 22.392687,3 15.4998249,3 C8.60783833,3 3,7.58488851 3,13.2202821 C3,18.2725519 7.44697394,22.5036845 13.4537335,23.3036493 C13.8610605,23.3922206 14.4149622,23.574127 14.5550574,23.9247071 C14.6811432,24.2429992 14.6375385,24.7417862 14.5955099,25.0634306 C14.5955099,25.0634306 14.4489353,25.9521431 14.4172387,26.1416363 C14.3627767,26.4599284 14.1659428,27.3869278 15.4998249,26.8205654 C16.8340572,26.2542031 22.6986201,22.549911 25.3212034,19.5084922 L25.3205029,19.5084922 C27.132285,17.5069923 28,15.4756747 28,13.2202821 L28,13.2202821 Z" id="path-2"></path>
        <filter x="-16.0%" y="-8.3%" width="132.0%" height="133.3%" filterUnits="objectBoundingBox" id="filter-3">
            <feOffset dx="0" dy="2" in="SourceAlpha" result="shadowOffsetOuter1"></feOffset>
            <feGaussianBlur stdDeviation="1" in="shadowOffsetOuter1" result="shadowBlurOuter1"></feGaussianBlur>
            <feColorMatrix values="0 0 0 0 0   0 0 0 0 0   0 0 0 0 0  0 0 0 0.05 0" type="matrix" in="shadowBlurOuter1"></feColorMatrix>
        </filter>
    </defs>
    <g id="leftmenu/contactus/solid/icon-line" stroke="none" stroke-width="1" fill="none" fill-rule="evenodd">
        <g id="Fill-1">
            <use fill="black" fill-opacity="1" filter="url(#filter-3)" xlink:href="#path-2"></use>
            <use fill="url(#linearGradient-1)" fill-rule="evenodd" xlink:href="#path-2"></use>
        </g>
    </g>
</svg>
