<?xml version="1.0" encoding="UTF-8"?>
<svg viewBox="0 0 30 30" version="1.1" xmlns="http://www.w3.org/2000/svg" xmlns:xlink="http://www.w3.org/1999/xlink">
    <title>leftmenu/other/icon-affiliate</title>
    <defs>
        <linearGradient x1="50%" y1="1.33055874e-13%" x2="50%" y2="104.53891%" id="linearGradient-1">
            <stop stop-color="#F5DB21" stop-opacity="0.7" offset="0%"></stop>
            <stop stop-color="#F5DB21" stop-opacity="0.995478029" offset="100%"></stop>
            <stop stop-color="#FFFFFF" offset="100%"></stop>
            <stop stop-color="#F5DB21" stop-opacity="0.995478029" offset="100%"></stop>
        </linearGradient>
        <path d="M15,3 C16.863193,3 18.3736094,4.50702808 18.3736094,6.36604142 C18.3736094,7.93420335 17.2988445,9.2519036 15.8441767,9.62583886 L15.8441767,13.2043682 C16.6817896,13.419684 17.3934427,13.9479123 17.8464771,14.6566916 L21.2599291,13.5491739 C21.1655604,12.0497761 22.0867273,10.6198798 23.5784785,10.1351804 C25.3465053,9.56071372 27.2465185,10.5315078 27.8222768,12.3035097 C28.3980351,14.0755115 27.4315106,15.9777002 25.6634838,16.5521669 C24.1720732,17.0367556 22.5867452,16.4217852 21.7815946,15.1538662 L18.3676463,16.2623586 C18.371603,16.3291227 18.3736094,16.3964104 18.3736094,16.4641657 C18.3736094,17.2758875 18.0856402,18.0205014 17.6060729,18.6018523 L19.7120288,21.5006724 C21.1088793,20.947583 22.7534477,21.3818025 23.6754007,22.6507619 C24.7681014,24.1547353 24.4319577,26.2617471 22.9246029,27.3569045 C21.4172481,28.4520619 19.3094866,28.1206511 18.216786,26.6166777 C17.2950436,25.348008 17.3900219,23.6502351 18.3470792,22.4926829 L16.2420592,19.594739 C15.8576561,19.7466953 15.4386026,19.8302071 15,19.8302071 C14.5613974,19.8302071 14.1423439,19.7466953 13.7579408,19.594739 L11.6522648,22.4918898 C12.6099347,23.6494595 12.705167,25.3477182 11.783214,26.6166777 C10.6905134,28.1206511 8.58275195,28.4520619 7.07539711,27.3569045 C5.56804228,26.2617471 5.23189863,24.1547353 6.32459926,22.6507619 C7.24634171,21.3820923 8.89036958,20.9477814 10.2870142,21.5002936 L12.3939271,18.6018523 C11.9143598,18.0205014 11.6263906,17.2758875 11.6263906,16.4641657 C11.6263906,16.3964104 11.628397,16.3291227 11.6323537,16.2623586 L8.21895705,15.1529973 C7.41397905,16.4215042 5.82826744,17.0368663 4.33651616,16.5521669 C2.56848941,15.9777002 1.60196487,14.0755115 2.17772318,12.3035097 C2.7534815,10.5315078 4.6534947,9.56071372 6.42152145,10.1351804 C7.91293208,10.6197691 8.83401886,12.0491231 8.74013536,13.5481467 L12.1535229,14.6566916 C12.606737,13.9476312 13.3187751,13.419265 14.1568201,13.2041121 L14.1568201,9.62609494 C12.7016465,9.25250555 11.6263906,7.93456154 11.6263906,6.36604142 C11.6263906,4.50702808 13.136807,3 15,3 Z" id="path-2"></path>
        <filter x="-15.4%" y="-8.0%" width="130.8%" height="132.0%" filterUnits="objectBoundingBox" id="filter-3">
            <feOffset dx="0" dy="2" in="SourceAlpha" result="shadowOffsetOuter1"></feOffset>
            <feGaussianBlur stdDeviation="1" in="shadowOffsetOuter1" result="shadowBlurOuter1"></feGaussianBlur>
            <feColorMatrix values="0 0 0 0 0   0 0 0 0 0   0 0 0 0 0  0 0 0 0.05 0" type="matrix" in="shadowBlurOuter1"></feColorMatrix>
        </filter>
    </defs>
    <g id="leftmenu/other/icon-affiliate" stroke="none" stroke-width="1" fill="none" fill-rule="evenodd">
        <g id="Combined-Shape">
            <use fill="black" fill-opacity="1" filter="url(#filter-3)" xlink:href="#path-2"></use>
            <use fill="url(#linearGradient-1)" fill-rule="evenodd" xlink:href="#path-2"></use>
        </g>
    </g>
</svg>
