<?xml version="1.0" encoding="UTF-8"?>
<svg viewBox="0 0 30 30" version="1.1" xmlns="http://www.w3.org/2000/svg" xmlns:xlink="http://www.w3.org/1999/xlink">
    <title>leftmenu/sports/solid/icon-sv388</title>
    <g id="leftmenu/sports/solid/icon-sv388" stroke="none" stroke-width="1" fill="none" fill-rule="evenodd">
        <path d="M16.5522873,10.8015832 C10.7083964,6.98901269 6.79053757,16.6030925 14.3830354,17.0836038 C10.6153323,19.7015502 11.3874625,23.8502219 14.9167034,24.7771558 C18.5940113,25.0032857 16.8543395,21.406922 17.1879545,18.3360154 C17.38383,16.5315294 19.2832889,15.1698471 20.9399922,14.7913685 C19.271917,14.5507626 16.8854382,15.2296192 15.3084545,16.0116759 C16.0505303,15.3374891 16.8910081,14.7421033 17.6499098,14.2167628 C15.9696504,13.5625389 14.869127,13.9622646 13.6758876,13.8471567 C12.1131768,13.6962089 11.4543016,10.8245814 13.5398887,10.7398265 C14.0958364,10.7167115 15.0047778,11.0752272 15.8051057,11.64026 C16.2592863,11.9608344 17.030024,11.5560888 16.5522873,10.8015832 M17.2254354,9.87453247 C18.5567624,10.95615 19.2157537,12.3258876 17.0740032,12.4738001 C16.4546977,12.5162943 18.3881563,13.4177784 19.7031217,13.2170984 C20.6312097,13.1147154 19.3102102,12.2672829 20.0859377,11.7606213 C21.5141581,12.3208677 21.7115422,10.8668421 21.9513969,11.2771914 C22.3763354,12.0043792 22.9662828,12.5643921 23.2402533,12.760169 C24.0744649,13.3562552 24.7637425,14.4325026 25,16.0392271 C21.4424454,15.9719835 19.5175737,16.970714 18.5761411,18.4587116 C16.7114942,21.4086731 20.3754575,27.9739106 23.9310394,29.9999868 C19.7676399,30.0063943 16.1516012,27.6849734 13.6357377,26.601021 C11.8656634,25.8383435 11.3535789,27.0878364 11.8156502,28.810486 C9.9354539,28.2294595 8.9679123,24.6029763 8.22235524,22.9947342 C7.29299081,20.991903 6.58236179,24.1111409 6.68285244,25.0309536 C3.88884109,22.1741524 4.65354476,14.8124989 8.38585562,11.5068235 C10.9646127,9.22264339 14.7407867,7.85570763 17.2254354,9.87453247 Z M11.7133377,0.503405109 C15.0768734,-0.915480976 16.4135383,0.970374365 17.181375,2.39276272 C18.2720941,4.41477646 18.5333112,3.62493462 18.5492147,2.38947012 L18.5495936,2.16730276 C18.549272,2.12966444 18.5487679,2.09176103 18.5480961,2.05365275 L18.5421732,1.82302617 C18.5408905,1.7843392 18.5394698,1.74556775 18.5379261,1.70677204 L18.5273066,1.4741882 C18.4976615,0.894408751 18.4470234,0.336260837 18.425556,0.00293080879 C20.3699224,0.886436641 20.5584874,2.95522719 20.6466778,4.40738483 C20.8198095,7.22227551 22.5289628,5.78412694 22.8134929,3.7843311 C23.6611652,5.67975931 23.6998065,7.53444446 23.2332096,8.84569413 C22.0809323,12.0802734 18.5881281,10.2336435 16.6010589,8.8674082 C14.4685917,7.40100799 10.5391288,6.64953772 6.56487456,10.3124446 C7.00443412,8.53060662 7.94737523,7.264186 9.18099657,6.23568621 C10.2045855,5.38241664 9.68194129,4.62335811 7.28931234,4.69632206 C8.82127255,2.44669767 10.8865526,3.40877108 12.6082383,2.9284932 C14.7186579,2.34046216 13.6096635,1.64374403 11.7133377,0.503405109 Z" id="Fill-1" fill="#222222" fill-rule="nonzero"></path>
    </g>
</svg>