<?xml version="1.0" encoding="UTF-8"?>
<svg viewBox="0 0 30 30" version="1.1" xmlns="http://www.w3.org/2000/svg" xmlns:xlink="http://www.w3.org/1999/xlink">
    <title>leftmenu/games/icon-crash</title>
    <g id="leftmenu/games/icon-crash" stroke="none" stroke-width="1" fill="none" fill-rule="evenodd">
        <path d="M23.7871684,18.7511013 C25.6526835,19.0517621 27,20.5980176 27,22.4306167 L27,27.284141 C27,27.4702643 26.9111659,27.6420705 26.7779149,27.7852423 C26.6446638,27.9284141 26.45219,28 26.2597162,28 C24.4830352,28 22.8396052,27.3127753 21.6255398,26.095815 L22.1881555,25.3513216 C22.2325725,25.2797357 22.2769895,25.2081498 22.3066009,25.1222467 L22.2917952,25.1222467 L22.6027144,24.2202643 C23.2097471,22.4306167 23.5946946,20.5980176 23.7427514,18.7511013 L23.7871684,18.7511013 Z M6.42011104,18.722467 C6.52375077,20.784141 6.90869833,22.8314978 7.58975941,24.8215859 L7.69339914,25.1222467 C7.72301049,25.2081498 7.81184454,25.3513216 7.81184454,25.3513216 L8.37446021,26.095815 C7.17520049,27.3127753 5.51696484,28 3.74028378,28 C3.32572486,28 3,27.6707048 3,27.284141 L3,22.4306167 C3,20.5980176 4.42134485,19.0088106 6.31647131,18.7511013 C6.34608267,18.7367841 6.39049969,18.722467 6.42011104,18.722467 Z M19.8932758,25.623348 L18.3534855,27.6563877 C18.2054287,27.8711454 17.9389266,28 17.6724244,28 L12.2979642,28 C12.0314621,28 11.7797656,27.8711454 11.6169031,27.6563877 C11.6169031,27.6563877 10.0771129,25.623348 10.0771129,25.623348 L19.8932758,25.623348 Z M20.1301666,7.95594714 C22.484269,12.938326 22.8099938,18.5077093 21.0333128,23.719163 L20.929673,24.0198238 L9.05552128,24.0198238 C7.33806292,18.7367841 7.81184454,12.9240088 10.3436151,7.95594714 L20.1301666,7.95594714 Z M15.2590993,12.5517621 C14.2967304,12.5517621 13.4083899,12.9096916 12.7273288,13.5682819 C12.0462677,14.2268722 11.6761258,15.0859031 11.6761258,16.0165198 C11.6761258,16.9471366 12.0462677,17.8061674 12.7273288,18.4647577 C13.4083899,19.123348 14.2967304,19.4812775 15.2590993,19.4812775 C16.2214682,19.4812775 17.1098088,19.123348 17.7908698,18.4647577 C18.4719309,17.8061674 18.8420728,16.9471366 18.8420728,16.0165198 C18.8420728,15.0859031 18.4719309,14.2268722 17.7908698,13.5682819 C17.1098088,12.9096916 16.2214682,12.5517621 15.2590993,12.5517621 Z M15.2590993,14.1552863 C15.777298,14.1552863 16.2658853,14.3414097 16.6212215,14.6993392 C16.9765577,15.0572687 17.1838371,15.5154185 17.1838371,16.0165198 C17.1838371,16.5176211 16.9913634,16.9900881 16.6212215,17.3337004 C16.2510796,17.6773128 15.777298,17.8777533 15.2590993,17.8777533 C14.7409007,17.8777533 14.2523134,17.69163 13.8969772,17.3337004 C13.541641,16.9757709 13.3343615,16.5176211 13.3343615,16.0165198 C13.3343615,15.5154185 13.5268353,15.0429515 13.8969772,14.6993392 C14.2671191,14.3557269 14.7409007,14.1552863 15.2590993,14.1552863 Z M11.3355953,6.35242291 L19.2566317,6.35242291 C18.5311536,5.26431718 17.4503393,3.87555066 16.0882171,2.30066079 C15.910549,2.11453744 15.6736582,2 15.4219618,2 C15.1702653,2 14.9333745,2.10022026 14.7557064,2.27202643 C13.2899445,3.8469163 12.1054904,5.25 11.3207896,6.35242291 L11.3355953,6.35242291 Z" id="Combined-Shape" fill="#222222" fill-rule="nonzero"></path>
    </g>
</svg>