<?xml version="1.0" encoding="UTF-8"?>
<svg viewBox="0 0 30 30" version="1.1" xmlns="http://www.w3.org/2000/svg" xmlns:xlink="http://www.w3.org/1999/xlink">
    <title>pinterest</title>
    <g id="Symbols" stroke="none" stroke-width="1" fill="none" fill-rule="evenodd">
        <g id="global/footer" transform="translate(-73.000000, -140.000000)">
            <g id="Follow-Us" transform="translate(10.000000, 69.000000)">
                <g id="icon" transform="translate(13.000000, 31.000000)">
                    <g id="pinterest" transform="translate(50.000000, 40.000000)">
                        <path d="M15.0002748,30 C6.72877164,30 0,23.2712284 0,14.9997252 C0,6.72932124 6.72877164,0 15.0002748,0 C23.2712284,0 30,6.72932124 30,14.9997252 C30,23.2712284 23.2712284,30 15.0002748,30" id="Fill-103" fill="#FC000A"></path>
                        <path d="M15,6 C10.027027,6 6,10.0300526 6,15.0067618 C6,18.8204358 8.36486486,22.0796394 11.7162162,23.391435 C11.6351351,22.6746807 11.5675676,21.5927874 11.7432432,20.8084147 C11.9054054,20.1051841 12.7972973,16.3320811 12.7972973,16.3320811 C12.7972973,16.3320811 12.527027,15.7911345 12.527027,14.9932382 C12.527027,13.7355372 13.2567568,12.8024042 14.1486486,12.8024042 C14.9189189,12.8024042 15.2837838,13.3839219 15.2837838,14.0736289 C15.2837838,14.8444778 14.7972973,16.0075131 14.5405405,17.0758828 C14.3243243,17.9684448 14.9864865,18.6987228 15.8783784,18.6987228 C17.472973,18.6987228 18.7027027,17.0082645 18.7027027,14.5740045 C18.7027027,12.4237415 17.1486486,10.9090909 14.9459459,10.9090909 C12.3918919,10.9090909 10.8783784,12.8294515 10.8783784,14.8174305 C10.8783784,15.5882795 11.1756757,16.4267468 11.5540541,16.8730278 C11.6216216,16.9676935 11.6351351,17.0353118 11.6216216,17.1299775 C11.5540541,17.4139745 11.4054054,18.0225394 11.3783784,18.1442524 C11.3378378,18.3065364 11.2432432,18.3471074 11.0810811,18.2659654 C9.95945946,17.7385424 9.25675676,16.1021788 9.25675676,14.7768595 C9.25675676,11.9368896 11.3243243,9.32682194 15.2027027,9.32682194 C18.3243243,9.32682194 20.7432432,11.5582269 20.7432432,14.5199098 C20.7432432,17.6168295 18.7837838,20.1187077 16.0810811,20.1187077 C15.1756757,20.1187077 14.3108108,19.6453794 14.0135135,19.0909091 C14.0135135,19.0909091 13.5675676,20.8084147 13.4594595,21.2276484 C13.2567568,22.012021 12.7027027,22.985725 12.3378378,23.59429 C13.1756757,23.8512397 14.0675676,24 15,24 C19.972973,24 24,19.9699474 24,14.9932382 C24,10.0300526 19.972973,6 15,6 Z" id="Path" fill="#FFFFFF"></path>
                    </g>
                </g>
            </g>
        </g>
    </g>
</svg>