<?xml version="1.0" encoding="UTF-8"?>
<svg viewBox="0 0 24 24" version="1.1" xmlns="http://www.w3.org/2000/svg" xmlns:xlink="http://www.w3.org/1999/xlink">
    <title>trc20</title>
    <g id="crypto" stroke="none" stroke-width="1" fill="none" fill-rule="evenodd">
        <g id="trc20">
            <rect id="Rectangle" fill="#FFDEDE" x="0" y="0" width="24" height="24" rx="12"></rect>
            <path d="M16.9007509,7.62068298 C16.886617,7.61013842 16.8724831,7.59959385 16.8548158,7.58904929 C16.7841464,7.53632648 16.7028766,7.48008881 16.6039395,7.44845512 L16.5968726,7.44494026 C14.8866737,7.0337023 13.1482071,6.61191978 11.466276,6.20419668 C9.93981757,5.83513697 8.41689257,5.46607726 6.89043411,5.09701756 C6.85156595,5.08647299 6.81269779,5.07592843 6.77029617,5.06538387 C6.63249089,5.02672047 6.4734848,4.98454222 6.30387831,5.00563134 C6.25440974,5.01266105 6.21200812,5.03023532 6.17313996,5.05483931 L6.13073834,5.08998785 C6.06360244,5.15325523 6.02826775,5.23409688 6.01060041,5.27978998 L6,5.30790882 L6,5.46959212 L6.00706694,5.4941961 C6.97170389,8.18305968 7.96107511,10.9105867 8.91511166,13.5502423 C9.65007314,15.5818281 10.4133024,17.6872258 11.1588643,19.7539602 C11.2047994,19.8945544 11.3355377,19.9859406 11.4980773,20 L11.5334119,20 C11.6853511,20 11.8196229,19.9261881 11.8867588,19.806683 L14.685266,15.7470262 C15.3672255,14.7593522 16.0491849,13.7681632 16.7311444,12.7804892 C17.0102884,12.3762809 17.2894324,11.9685578 17.5685764,11.5643496 C18.0279274,10.8965272 18.5014122,10.2076158 18.9713635,9.5362786 L18.9960978,9.50113006 L18.9960978,9.45895181 C19.0066982,9.3359319 19.0102317,9.08286239 18.8052905,8.94929792 C18.1940004,8.52400055 17.5403087,8.07058434 16.9007509,7.62068298 Z" id="Path" fill="#FFDEDE" fill-rule="nonzero"></path>
            <path d="M16.8473969,7.41366577 C16.7767275,7.36094296 16.7159415,7.33246072 16.6170044,7.30082703 C14.3044729,6.84155553 12.5875634,6.47601208 11.466276,6.20419668 C9.93981757,5.83513697 8.41689257,5.46607726 6.89043411,5.09701756 C6.85156595,5.08647299 6.81269779,5.07592843 6.77029617,5.06538387 C6.63249089,5.02672047 6.4734848,4.98454222 6.30387831,5.00563134 C6.25440974,5.01266105 6.21200812,5.03023532 6.17313996,5.05483931 L6.13073834,5.08998785 C6.06360244,5.15325523 6.02826775,5.23409688 6.01060041,5.27978998 L6,5.30790882 L6,5.46959212 L6.00706694,5.4941961 C6.97170389,8.18305968 7.96107511,10.9105867 8.91511166,13.5502423 C9.65007314,15.5818281 10.4133024,17.6872258 11.1588643,19.7539602 C11.2047994,19.8945544 11.3355377,19.9859406 11.4980773,20 L11.5334119,20 C11.6853511,20 11.8196229,19.9261881 11.8867588,19.806683 L14.685266,15.7470262 C15.3672255,14.7593522 16.0491849,13.7681632 16.7311444,12.7804892 C17.0102884,12.3762809 17.2894324,11.9685578 17.5685764,11.5643496 C18.0279274,10.8965272 18.5014122,10.2076158 18.9713635,9.5362786 L18.9960978,9.50113006 L18.9960978,9.45895181 C19.0066982,9.3359319 19.0102317,9.08286239 18.8052905,8.94929792 C18.2201583,8.4979128 16.8650642,7.42421033 16.8473969,7.41366577 Z M13.6076729,11.1181421 C14.0019352,10.6880216 16.3843469,8.69572595 16.423418,8.648738 C16.5986456,8.77162957 16.8853005,9.00491634 17.2833824,9.34859832 M12.2844469,11.1044223 C11.1100634,9.94417808 8.23490207,6.59289262 8.16766433,6.51329235 C8.44133374,6.58250998 10.8602165,7.13600419 15.4243125,8.173775 C14.7413186,8.88671653 12.978423,10.5242357 12.2844469,11.1044223 Z M12.6937321,12.7416829 C12.7195205,12.7274967 14.2512065,11.9317489 17.28879,10.3544395 C16.5362371,11.4538685 12.4903288,17.0813443 12.2090006,17.5033832 C12.2441666,17.0777978 12.6726325,13.0573255 12.6937321,12.7416829 Z M11.7137063,12.5 C11.67201,12.8612332 11.3838506,17.0409847 11.3525784,17.3355827 C11.3352049,17.2829759 9.01868765,11.142221 7.84076534,7.8315009 C8.77893355,8.97482161 11.5851425,12.3562081 11.7137063,12.5 Z" id="Combined-Shape" fill="#EE3030" fill-rule="nonzero"></path>
        </g>
    </g>
</svg>