<?xml version="1.0" encoding="UTF-8"?>
<svg width="8px" height="5px" viewBox="0 0 8 5" version="1.1" xmlns="http://www.w3.org/2000/svg" xmlns:xlink="http://www.w3.org/1999/xlink">
    <title>icon-arrow-type09</title>
    <g id="Page-1" stroke="none" stroke-width="1" fill="none" fill-rule="evenodd">
        <g id="icon-arrow-type09" transform="translate(4.145747, 2.705798) rotate(-270.000000) translate(-4.145747, -2.705798) translate(2.000000, -1.000000)" fill="#FFFFFF" fill-rule="nonzero">
            <g id="icon-set最新整理" transform="translate(0.000000, 0.000000)">
                <g id="images/h5/icon-set" transform="translate(0.000000, 0.000000)">
                    <g id="iconmonstr-arrow-25" transform="translate(0.000000, 0.000000)">
                        <path d="M0.211853057,0.205797608 C0.493819643,-0.0709115044 0.946237897,-0.0682442484 1.22492229,0.211770212 L4.00028241,3.0003762 C4.38856487,3.39051182 4.38856487,4.0210834 4.00028241,4.41121902 L1.22492229,7.19982501 C0.946237897,7.47983947 0.493819643,7.48250672 0.211853057,7.20579761 C-0.0669004434,6.93224167 -0.0711139004,6.48450641 0.202442037,6.20575291 C0.203995737,6.20416969 0.205556877,6.20259379 0.207125407,6.20102526 L2.70235306,3.70579761 L2.70235306,3.70579761 L0.207125407,1.21056996 C-0.0690415394,0.934403008 -0.0690415394,0.486647924 0.207125407,0.210480978 C0.208693936,0.208912448 0.210269837,0.207351308 0.211853057,0.205797608 Z" id="Path"></path>
                    </g>
                </g>
            </g>
        </g>
    </g>
</svg>