<?xml version="1.0" encoding="UTF-8"?>
<svg width="19px" height="19px" viewBox="0 0 19 19" version="1.1" xmlns="http://www.w3.org/2000/svg" xmlns:xlink="http://www.w3.org/1999/xlink">
    <title>icon-cross-type03</title>
    <g id="icon-set最新整理" stroke="none" stroke-width="1" fill="none" fill-rule="evenodd">
        <g id="images/h5/icon-set" transform="translate(-170.000000, -179.000000)" fill="#FFFFFF">
            <g id="icon-cross-type03" transform="translate(170.000000, 179.000000)">
                <path d="M17.7420077,0.430606925 C18.3140077,1.00060693 18.3150077,1.92660693 17.7450077,2.49860693 L17.7420077,2.50160693 L11.1620077,9.06160693 L17.7420077,15.6226069 C18.3140077,16.1926069 18.3150077,17.1196069 17.7450077,17.6926069 L17.7420077,17.6946069 C17.1681543,18.2674162 16.2388611,18.2674162 15.6650077,17.6946069 L9.08500774,11.1326069 L2.50800774,17.6946069 C1.93415434,18.2674162 1.00486115,18.2674162 0.431007744,17.6946069 C0.155721541,17.4201199 0.001,17.0473557 0.001,16.6586069 C0.001,16.2698582 0.155721541,15.8970939 0.431007744,15.6226069 L7.00800774,9.06160693 L0.430007744,2.50160693 C0.154721541,2.22711994 1.11022302e-16,1.85435569 1.11022302e-16,1.46560693 C1.11022302e-16,1.07685817 0.154721541,0.70409391 0.430007744,0.429606925 C1.00386115,-0.143202308 1.93315434,-0.143202308 2.50700774,0.429606925 L9.08600774,6.99060693 L15.6650077,0.430606925 C16.2388611,-0.142202308 17.1681543,-0.142202308 17.7420077,0.430606925 L17.7420077,0.430606925 Z" id="Path"></path>
            </g>
        </g>
    </g>
</svg>