<?xml version="1.0" encoding="UTF-8"?>
<svg viewBox="0 0 120 120" version="1.1" xmlns="http://www.w3.org/2000/svg" xmlns:xlink="http://www.w3.org/1999/xlink">
    <title>v1-icon/sports/color/sbov2-2</title>
    <g id="v1-icon/sports/color/sbov2-2" stroke="none" stroke-width="1" fill="none" fill-rule="evenodd">
        <path d="M66.4022726,46.1343239 L61.5288741,52.0773212 L71.7062959,60.816886 C73.4122982,62.2809509 73.6347213,64.883086 72.203477,66.6283212 L46.4524553,98.03324 C45.6867736,98.9675637 44.5558858,99.5072011 43.3646991,99.5072011 L35.4445022,99.5072011 C33.7322424,99.5072011 32.7998857,97.460421 33.9000552,96.1186041 L39.5658716,89.2086837 L39.5658716,89.2086837 L59.5532335,64.8330226 L46.2880556,53.4418412 L57.5832815,39.6662425 L58.114594,39.0177462 L65.0683028,30.5372306 L71.3814785,22.8385198 C72.1471601,21.9041961 73.278048,21.3645587 74.4692347,21.3645587 L82.3894316,21.3645587 C84.1016914,21.3645587 85.0340481,23.4113388 83.9333097,24.7531557 L73.3559814,37.6538083 L66.4022726,46.1343239 Z M89.1958064,39.5975508 C87.5347438,40.6186124 85.6575155,41.2496447 83.6704977,41.4271953 C80.9991449,41.6687806 78.3863844,41.0651085 76.1092496,39.7296951 L86.5477768,26.9984432 C87.9192911,25.3259747 88.2111148,23.057984 87.3094764,21.0793134 C86.4078379,19.101225 84.5226456,17.8717598 82.3894316,17.8717598 L82.3894316,17.8717598 L74.4692347,17.8717598 C72.263207,17.8723419 70.1846032,18.8637147 68.7670114,20.5932322 L62.4538357,28.2925252 L55.9444043,22.7023006 C51.0727124,18.5185097 44.9000443,16.5281965 38.565252,17.094612 C36.9252371,17.2413096 35.3301619,17.5643935 33.7919724,18.0423248 C32.0910897,18.5709017 30.9289148,20.1799177 30.9289148,21.9990838 L30.9289148,28.1836663 C30.9289148,29.7886074 32.6383302,30.7788158 33.9831084,29.9521868 C35.6436021,28.9317074 37.5208305,28.3012572 39.5078482,28.1237066 C42.967068,27.8140117 46.3318576,28.9008543 48.9901266,31.1828162 L49.8274842,31.9017507 L33.6412253,51.6418856 C32.2082743,53.3894493 32.4306974,55.9956593 34.1389752,57.4620527 L44.3118461,66.1975427 L28.2262748,85.8154296 C27.1238298,87.159575 28.0578931,89.2092658 29.7724283,89.2086837 L35.1105831,89.2086837 L31.2855881,93.8733166 C29.9146426,95.5457851 29.6228189,97.8137758 30.5244574,99.7918642 C31.425527,101.770535 33.3112882,103 35.4445022,103 L43.3646991,103 C45.5707268,103 47.6493305,102.008045 49.0674912,100.278528 L74.817944,68.8736087 C77.4563031,65.6555767 77.0450195,60.8413356 73.9003776,58.14082 L66.3374229,51.6471248 L69.0912599,48.2887987 C73.0505051,51.0731415 77.6872591,52.5511775 82.4969456,52.5511775 C83.1989152,52.5505954 83.9054357,52.5197423 84.6130939,52.4557077 C86.2531088,52.3090101 87.8487529,51.9859263 89.3875112,51.5079949 C91.0883939,50.9794181 92.25,49.370402 92.25,47.551236 L92.25,41.3660713 C92.25,39.7611302 90.5405845,38.7709218 89.1958064,39.5975508 L89.1958064,39.5975508 Z" id="sbo" fill="#F5DB21" fill-rule="nonzero"></path>
    </g>
</svg>
