<?xml version="1.0" encoding="UTF-8"?>
<svg viewBox="0 0 30 30" version="1.1" xmlns="http://www.w3.org/2000/svg" xmlns:xlink="http://www.w3.org/1999/xlink">
    <title>leftmenu/sports/color/icon-horsebook</title>
    <g id="leftmenu/sports/color/icon-horsebook" stroke="none" stroke-width="1" fill="none" fill-rule="evenodd">
        <path d="M8.76766052,25.6690364 C8.73209163,25.7193773 8.69652274,25.7697183 8.66095385,25.820165 C7.94246225,25.4140531 7.16555144,25.0818663 6.51582637,24.5886095 C4.10856693,22.761106 2.70391909,20.3064557 2.18385879,17.3913337 C1.46353485,13.3543276 2.81264698,9.748009 5.70690356,7.10041592 C7.46914884,5.48835828 10.031678,4.60651804 12.5532491,3.88203465 C14.517921,3.31755633 6.70678894,11.6340751 7.46914884,14.4025102 C8.37270645,17.6840847 10.5503773,19.2358442 13.0829902,21.3947943 C13.9092663,22.0991446 15.2708079,23.2598621 16.0608684,24.0010164 C16.972941,24.8567068 17.2167964,26.9849584 17.275,28.2829301 C17.2941856,28.7088188 15.5905283,28.5613145 15.4944923,29 C14.9452224,27.3259518 13.6878082,26.3457838 12.2182741,25.5579902 C11.2582374,25.0432645 10.2847276,24.5504308 9.3457089,24.0010164 C7.78175553,23.086207 6.56971862,21.8402684 5.80919106,20.1978419 C5.78192158,20.139146 5.73675987,20.088382 5.70000535,20.0339165 C6.02529902,22.2792711 6.85319191,24.2585378 8.76766052,25.6690364 Z" id="Fill-3" fill="#535B6E"></path>
        <path d="M18.1042404,14.5449255 C17.4115531,15.706296 13.9983302,12.1932603 13.9983302,15.1235054 C13.9983302,17.0770021 13.5406989,15.8939945 12.6254362,11.5744826 C15.20304,8.67572107 16.4918419,7.22634029 16.4918419,7.22634029 C16.4918419,7.22634029 18.0402811,7.30555216 18.0402811,7.99204433 C18.0402811,8.6785365 18.7969278,13.3835549 18.1042404,14.5449255 Z" id="Path-6" fill="#B54C2C"></path>
        <path d="M20.1824024,3.81959695 C21.0665568,4.82560338 21.9482329,5.81518864 22.8100814,6.82119507 C22.9748434,7.01351208 23.1282908,7.25856628 23.1720406,7.4991994 C23.4001643,8.75268109 23.9467129,9.86079342 24.6909974,10.8904842 C25.6525222,12.2209138 26.6025168,13.5592381 27.5666277,14.8878782 C27.9923795,15.4746187 28.2044473,16.0579909 27.7296655,16.7244162 C27.6121015,16.8894699 27.5726621,17.1107345 27.510809,17.3102094 C27.3760037,17.7456859 27.1155526,18.1125303 26.6409864,18.1353726 C25.5540313,18.187794 24.4616884,18.2078994 23.3760265,18.1543201 C23.1221486,18.1417937 22.713207,17.8126337 22.6721512,17.579369 C22.4960746,16.5780995 21.801682,16.1228334 20.9349843,15.8435685 C19.8470595,15.4929347 18.7349968,15.2143013 17.6431927,14.8744044 C15.9668013,14.3525063 15.4118476,13.7121864 15.38049,12.0549127 C15.3677746,11.3811189 15.3677746,10.180973 16.8095767,8.87895144 C15.131179,8.87895144 13.7211198,12.3305987 14.0608808,13.6423965 C14.1201477,13.8713454 14.1718716,14.133347 14.1171305,14.3541905 C13.8110978,15.5911458 15.0313541,16.6769422 15.64676,17.7130541 C16.2137827,18.667797 16.8627014,19.5776976 17.3996596,20.5474932 C18.8451255,23.1585626 18.5493298,25.7594213 17.2541863,28.3488062 C17.1270318,25.8908958 15.7249924,24.2070956 13.8801753,22.7268756 C12.3713476,21.5162363 10.893231,20.2523335 9.52890688,18.8902195 C7.43807824,16.8028378 6.4088815,14.2351371 6.56556165,11.3034342 C6.72321161,8.35404696 8.14486302,6.10803262 10.8085332,4.65833915 C12.6729623,3.64359583 14.6614208,3.15443481 16.8095767,3.32812013 C17.0333901,3.34612024 17.2929791,3.19759298 17.502784,3.07296061 C17.974333,2.79295882 18.4112917,2.45632509 18.8875821,2.18495494 C19.6064358,1.77547864 20.3467333,1.4018973 21.102548,1 C21.173776,1.98400628 20.9572902,2.96327569 20.1824024,3.81959695 Z" id="Fill-1" fill="#D66139"></path>
        <rect id="Rectangle" fill="#535B6E" transform="translate(20.75, 9.5) rotate(32) translate(-20.75, -9.5)" x="20" y="9" width="1.5" height="1" rx="0.5"></rect>
        <rect id="Rectangle" fill="#B54C2C" transform="translate(26.114, 17.1026) rotate(32) translate(-26.114, -17.1026)" x="24.6139639" y="16.6025606" width="3" height="1" rx="0.5"></rect>
        <path d="M21.102548,1 C21.6509957,3.09633389 21.8338116,4.48863344 21.6509957,5.17689863 C21.4681798,5.86516383 20.9786487,5.41272993 20.1824024,3.81959695 L21.102548,1 Z" id="Path-5" fill="#B54C2C"></path>
    </g>
</svg>
